
        <svg xmlns="http://www.w3.org/2000/svg" xmlns:xlink="http://www.w3.org/1999/xlink" version="1.1" width="3162.016201620162" 
        height="944.9597993849133" viewBox="0 0 3162.016201620162 944.9597993849133">
			
			<g transform="scale(8.100810081008103) translate(10, 10)">
				<defs id="SvgjsDefs9251"><linearGradient id="SvgjsLinearGradient9258"><stop id="SvgjsStop9259" stop-color="#00ddff" offset="0"></stop><stop id="SvgjsStop9260" stop-color="#ff00d4" offset="1"></stop></linearGradient><linearGradient id="SvgjsLinearGradient9261"><stop id="SvgjsStop9262" stop-color="#00ddff" offset="0"></stop><stop id="SvgjsStop9263" stop-color="#ff00d4" offset="1"></stop></linearGradient><linearGradient id="SvgjsLinearGradient9264"><stop id="SvgjsStop9265" stop-color="#00ddff" offset="0"></stop><stop id="SvgjsStop9266" stop-color="#ff00d4" offset="1"></stop></linearGradient></defs><g id="SvgjsG9252" featureKey="pxMwYC-0" transform="matrix(0.378144295010107,0,0,0.378144295010107,-24.984778179185742,-24.7828100279675)" fill="url(#SvgjsLinearGradient9258)"><path xmlns="http://www.w3.org/2000/svg" fill="url(#SvgjsLinearGradient9258)" xmlns:a="http://ns.adobe.com/AdobeSVGViewerExtensions/3.0/" a:adobe-knockout="false" d="M97.525,109.331l2.974-3.296c6.748-6.807,7.151-7.214,11.826-11.134     c2.631-2.064,6.17-4.778,8.888-6.729c17.951-12.38,42.964-21.189,67.617-22.474c3.697-0.192,7.256-0.209,10.661-0.063l0.95,0.046     c8.825,0.689,9.354,0.73,14.713,1.614c9.464,1.888,10.028,1.998,15.655,3.674c-9.965-3.006-22.103-4.361-35.867-3.644     C156.394,69.335,117.094,86.968,97.525,109.331"></path><path xmlns="http://www.w3.org/2000/svg" fill="url(#SvgjsLinearGradient9258)" xmlns:a="http://ns.adobe.com/AdobeSVGViewerExtensions/3.0/" a:adobe-knockout="false" d="M69.501,163.724l2.021-7.443c1.329-3.848,3.1-8.986,4.63-12.758l0.674-1.56     c15.141-34.348,71.952-64.401,127.459-67.293c26.144-1.362,47.364,3.542,61.044,12.691l6.584,4.746     c3.434,2.851,7.979,6.698,11.24,9.745C269.246,88.4,243.377,80.768,210.153,82.5c-60.384,3.147-122.196,36.038-138.062,73.462     C70.973,158.602,70.113,161.189,69.501,163.724"></path><path xmlns="http://www.w3.org/2000/svg" fill="url(#SvgjsLinearGradient9258)" xmlns:a="http://ns.adobe.com/AdobeSVGViewerExtensions/3.0/" a:adobe-knockout="false" d="M68.891,220.21c-0.813-4.66-1.851-10.889-2.375-15.59l-0.419-6.647     c-0.224-6.202,1.058-12.827,3.997-19.76c17.07-40.266,83.574-75.653,148.543-79.04c42.602-2.219,73.965,9.873,85.695,29.813     c6.049,11.404,6.541,12.336,9.576,20.417c-8.801-23.918-42.652-38.976-90.279-36.495     c-66.251,3.452-134.069,39.539-151.476,80.601C68.094,203.082,67.135,212.081,68.891,220.21"></path><path xmlns="http://www.w3.org/2000/svg" fill="url(#SvgjsLinearGradient9258)" xmlns:a="http://ns.adobe.com/AdobeSVGViewerExtensions/3.0/" a:adobe-knockout="false" d="M92.813,271.626c-7.364-10.301-7.965-11.143-11.981-18.586     c-5.477-10.262-5.922-22.479-0.262-35.826c17.182-40.531,84.125-76.154,149.522-79.56c53.184-2.772,88.967,16.613,91.234,45.75     c0.137,3.502,0.402,8.168,0.379,11.67c-0.17,3.192-0.287,7.455-0.592,10.637c3.164-31.788-32.625-53.73-87.91-50.85     c-63.073,3.286-127.639,37.642-144.21,76.733C82.489,246.935,84.344,260.728,92.813,271.626"></path><path xmlns="http://www.w3.org/2000/svg" fill="url(#SvgjsLinearGradient9258)" xmlns:a="http://ns.adobe.com/AdobeSVGViewerExtensions/3.0/" a:adobe-knockout="false" d="M138.141,308.339l-1.272-0.625c-9.498-5.146-11.208-6.073-19.119-11.712     c-14.395-10.624-19.502-26.277-11.865-44.292c14.988-35.355,73.379-66.426,130.423-69.398     c56.316-2.934,90.262,22.611,76.697,57.281l-1.432,3.529c-5.064,10.84-5.369,11.489-9.361,17.986     c1.588-2.523,2.938-5.081,4.035-7.666c13.582-32.041-17.316-55.833-69.018-53.139c-51.698,2.695-104.621,30.854-118.205,62.897     C110.784,282.642,118.919,299.047,138.141,308.339"></path><path xmlns="http://www.w3.org/2000/svg" fill="url(#SvgjsLinearGradient9258)" xmlns:a="http://ns.adobe.com/AdobeSVGViewerExtensions/3.0/" a:adobe-knockout="false" d="M203.519,320.49c33.849-1.764,68.495-20.201,77.39-41.179     c8.895-20.979-11.336-36.553-45.184-34.789c-33.849,1.764-68.497,20.201-77.391,41.179     C149.441,306.679,169.671,322.255,203.519,320.49c-0.983,0.257-1.973,0.411-2.967,0.463c-8.32,0.227-8.646,0.237-13.268,0.01     c-2.216-0.176-5.176-0.358-7.385-0.594c-30.642-3.323-47.16-20.407-37.89-42.273c10.914-25.743,53.429-48.367,94.965-50.532     c41.535-2.164,66.359,16.951,55.445,42.693c-3.455,8.148-10.078,15.985-18.83,22.959c-2.738,2.07-6.428,4.782-9.254,6.727     c-6.793,4.263-6.793,4.263-10.469,6.225c-6.666,3.362-6.666,3.362-10.117,4.828c-6.504,2.603-6.504,2.603-10.041,3.775     c-3.322,1.016-9.504,2.903-10.275,2.903c-6.993,1.504-7.267,1.562-10.89,2.09c-7.553,0.933-7.848,0.971-11.992,1.189     C201.546,320.901,202.535,320.747,203.519,320.49"></path><path xmlns="http://www.w3.org/2000/svg" fill="url(#SvgjsLinearGradient9258)" xmlns:a="http://ns.adobe.com/AdobeSVGViewerExtensions/3.0/" a:adobe-knockout="false" d="M218.023,308.125c11.248-0.586,22.766-6.713,25.721-13.686     s-3.768-12.148-15.018-11.562c-11.25,0.587-22.767,6.714-25.722,13.687C200.049,303.535,206.772,308.712,218.023,308.125     c-1.771,2.74-3.607,5.031-5.493,6.887c-20.602,1.075-32.915-8.405-27.502-21.174c5.414-12.769,26.502-23.991,47.104-25.065     c20.602-1.072,32.916,8.407,27.502,21.176c-5.412,12.769-26.502,23.99-47.104,25.063     C214.416,313.156,216.253,310.865,218.023,308.125"></path></g><g id="SvgjsG9253" featureKey="Vx5QiU-0" transform="matrix(1.5849181365962546,0,0,1.5849181365962546,114.52752817547352,20.20220264702677)" fill="url(#SvgjsLinearGradient9261)"><path d="M4.72 20 l-3.16 0 l0 -14.62 l3.16 0 l0 6.1 l5.7 -6.1 l3.92 0 l-6.02 6.2 l6.28 8.42 l-3.88 0 l-4.58 -6.22 l-1.42 1.48 l0 4.74 z M26.89 11.22 q-0.51 0.8 -1.33 1.14 q1 0.34 1.72 1.3 t0.72 2.1 q0 2.26 -1.44 3.25 t-3.68 0.99 l-6.32 0 l0 -14.62 l6.08 0 q4.76 0 4.76 4.06 q0 0.98 -0.51 1.78 z M22.7 11.18 q0.78 0 1.15 -0.48 t0.37 -1.14 q0 -0.58 -0.44 -1.01 t-1.06 -0.43 l-2.98 0 l0 3.06 l2.96 0 z M24.32 16.78 q0.52 -0.48 0.52 -1.18 t-0.52 -1.18 t-1.5 -0.48 l-3.08 0 l0 3.32 l3.14 0 q0.92 0 1.44 -0.48 z M35.42 20.36 l-7.38 -14.96 l3.48 0 l3.9 8.08 l3.92 -8.08 l3.5 0 z M53.8 16.87 q1.42 0.57 2.6 0.57 q1.24 0 1.97 -0.48 t0.73 -1.14 q0 -0.54 -0.43 -0.88 t-1.09 -0.51 t-1.74 -0.37 q-1.44 -0.24 -2.64 -0.62 t-2.18 -1.32 t-0.98 -2.54 q0 -2.36 1.73 -3.39 t4.07 -1.03 q1.8 0 3.13 0.49 t2.65 1.47 l-1.76 2.4 q-0.98 -0.7 -2.04 -1.1 t-2.1 -0.4 q-0.92 0 -1.72 0.33 t-0.8 1.11 q0 0.48 0.41 0.77 t0.9 0.42 t1.59 0.37 l0.72 0.14 q1.66 0.32 2.75 0.71 t1.89 1.31 t0.8 2.56 q0 2.22 -1.57 3.38 t-4.25 1.16 q-3.92 0 -6.6 -2.28 l1.68 -2.42 q0.86 0.72 2.28 1.29 z M67.82 19.26 q-1.8 -1.02 -2.86 -2.77 t-1.06 -3.81 q0 -2.04 1.06 -3.79 t2.86 -2.77 t3.94 -1.02 t3.96 1.02 t2.88 2.77 t1.06 3.79 q0 2.06 -1.06 3.81 t-2.88 2.77 t-3.96 1.02 t-3.94 -1.02 z M69.4 8.63 q-1.08 0.65 -1.72 1.73 t-0.64 2.32 t0.64 2.33 t1.72 1.75 t2.36 0.66 t2.37 -0.66 t1.72 -1.75 t0.63 -2.33 t-0.63 -2.32 t-1.72 -1.73 t-2.37 -0.65 t-2.36 0.65 z M93.06 20 l-10.84 0 l0 -14.62 l3.18 0 l0 11.88 l7.66 0 l0 2.74 z M98.10000000000001 19.5 q-1.48 -0.76 -2.29 -2.16 t-0.81 -3.26 l0 -8.68 l3.16 0 l0 8.68 q0 1.28 0.55 2.05 t1.32 1.09 t1.53 0.32 q0.74 0 1.51 -0.32 t1.31 -1.09 t0.54 -2.05 l0 -8.68 l3.16 0 l0 8.68 q0 1.86 -0.8 3.26 t-2.28 2.16 t-3.44 0.76 q-1.98 0 -3.46 -0.76 z M117.30000000000001 8.12 l0 11.88 l-3.18 0 l0 -11.88 l-4.26 0 l0 -2.74 l11.68 0 l0 2.74 l-4.24 0 z M123.84 20 l0 -14.62 l3.16 0 l0 14.62 l-3.16 0 z M133.74 19.26 q-1.8 -1.02 -2.86 -2.77 t-1.06 -3.81 q0 -2.04 1.06 -3.79 t2.86 -2.77 t3.94 -1.02 t3.96 1.02 t2.88 2.77 t1.06 3.79 q0 2.06 -1.06 3.81 t-2.88 2.77 t-3.96 1.02 t-3.94 -1.02 z M135.32 8.63 q-1.08 0.65 -1.72 1.73 t-0.64 2.32 t0.64 2.33 t1.72 1.75 t2.36 0.66 t2.37 -0.66 t1.72 -1.75 t0.63 -2.33 t-0.63 -2.32 t-1.72 -1.73 t-2.37 -0.65 t-2.36 0.65 z M151.29999999999998 20 l-3.14 0 l0 -15.08 l10.08 8.92 l0 -8.44 l3.16 0 l0 15.06 l-10.1 -8.78 l0 8.32 z"></path></g><g id="SvgjsG9254" featureKey="aAUSXE-0" transform="matrix(0.33798295988824667,0,0,0.33798295988824667,116.52682422683097,61.74946367694854)" fill="url(#SvgjsLinearGradient9264)"><path d="M15.62 4 l0 8.68 q0 1.6 -0.48 2.98 t-1.39 2.41 t-2.22 1.62 t-2.99 0.59 q-1.64 0 -2.96 -0.58 t-2.25 -1.59 t-1.43 -2.38 t-0.5 -2.95 l0 -8.78 l3.1 0 l0 8.8 q0 0.92 0.26 1.73 t0.76 1.41 t1.25 0.95 t1.71 0.35 q1.02 0 1.77 -0.33 t1.24 -0.92 t0.74 -1.39 t0.25 -1.76 l0 -8.84 l3.14 0 z M34.8975 20 l-3.04 0 l-7.22 -11.22 l0 11.22 l-3.04 0 l0 -16 l3.48 0 l6.78 10.44 l0 -10.44 l3.04 0 l0 16 z M55.075 4 l-6.06 16 l-2.84 0 l-6.2 -16 l3.44 0 l4.16 11.24 l4.1 -11.24 l3.4 0 z M70.7125 20 l-10.56 0 l0 -15.98 l10.56 0 l0 2.56 l-7.52 0 l0 3.82 l7.42 0 l0 2.5 l-7.42 0 l0 4.4 l7.52 0 l0 2.7 z M79.59000000000002 20 l-3.1 0 l0 -15.98 l3.1 0 l0 15.98 z M96.78750000000002 20 l-10.82 0 l0 -15.98 l3.16 0 l0 12.98 l7.66 0 l0 3 z M105.06500000000003 20 l-3.1 0 l0 -15.98 l3.1 0 l0 15.98 z M124.74250000000004 20 l-3.04 0 l-7.22 -11.22 l0 11.22 l-3.04 0 l0 -16 l3.48 0 l6.78 10.44 l0 -10.44 l3.04 0 l0 16 z M145.84000000000003 17.06 q-0.68 0.84 -1.48 1.45 t-1.67 1.01 t-1.78 0.59 t-1.81 0.19 q-1.78 0 -3.34 -0.64 t-2.72 -1.76 t-1.84 -2.64 t-0.68 -3.28 q0 -1.72 0.67 -3.23 t1.84 -2.63 t2.73 -1.77 t3.34 -0.65 q2.06 0 3.75 0.84 t2.87 2.24 l-2.1 2.14 q-0.9 -1.22 -2.02 -1.75 t-2.5 -0.53 q-1.14 0 -2.14 0.42 t-1.75 1.15 t-1.18 1.7 t-0.43 2.07 q0 1.12 0.43 2.09 t1.18 1.71 t1.75 1.16 t2.14 0.42 q1.08 0 2.04 -0.4 t1.72 -1.06 l0 -1.54 l-3.28 0 l0 -2.64 l6.26 0 l0 5.34 z M175.93500000000006 17.12 q-1.2 1.46 -2.91 2.32 t-3.77 0.86 q-1.78 0 -3.34 -0.65 t-2.72 -1.77 t-1.83 -2.63 t-0.67 -3.25 t0.67 -3.25 t1.83 -2.64 t2.72 -1.77 t3.34 -0.64 q2.06 0 3.77 0.86 t2.85 2.24 l-2.14 2.2 q-0.74 -1.06 -1.91 -1.71 t-2.57 -0.65 q-1.12 0 -2.11 0.43 t-1.73 1.16 t-1.17 1.7 t-0.43 2.07 q0 1.08 0.43 2.05 t1.17 1.7 t1.73 1.16 t2.11 0.43 q1.48 0 2.62 -0.67 t1.9 -1.77 z M192.95250000000004 20 l-3.42 0 l-1.14 -3.64 q-0.18 -0.6 -0.45 -1.1 t-0.65 -0.86 t-0.91 -0.56 t-1.25 -0.2 l-1.16 0 l0 6.36 l-3.06 0 l0 -15.98 l6.32 -0.02 q1.02 0 1.9 0.35 t1.52 0.97 t1 1.46 t0.36 1.82 q0 0.7 -0.22 1.36 t-0.62 1.22 t-0.95 0.99 t-1.21 0.65 q0.76 0.28 1.24 0.81 t0.76 1.27 q0.14 0.34 0.26 0.68 t0.25 0.71 t0.28 0.8 t0.33 0.95 q0.22 0.66 0.41 1.13 t0.41 0.83 z M188.89250000000007 8.82 q0 -0.56 -0.21 -1.02 t-0.57 -0.8 t-0.85 -0.53 t-1.05 -0.19 l-2.24 0 l0 4.98 l2.24 0 q0.56 0 1.05 -0.17 t0.85 -0.49 t0.57 -0.77 t0.21 -1.01 z M208.79000000000005 20 l-10.56 0 l0 -15.98 l10.56 0 l0 2.56 l-7.52 0 l0 3.82 l7.42 0 l0 2.5 l-7.42 0 l0 4.4 l7.52 0 l0 2.7 z M230.70750000000007 20 l-3.4 0 l-1.48 -3.2 l-7.76 0 l-1.5 3.2 l-3.4 0 l7.56 -16 l2.42 0 z M224.60750000000007 14.219999999999999 l-2.66 -5.76 l-2.7 5.76 l5.36 0 z M244.06500000000008 6.779999999999999 l-4.42 0 l0 13.22 l-3.14 0 l0 -13.22 l-4.42 0 l0 -2.76 l11.98 0 l0 2.76 z M252.54250000000008 20 l-3.1 0 l0 -15.98 l3.1 0 l0 15.98 z M272.7200000000001 4 l-6.06 16 l-2.84 0 l-6.2 -16 l3.44 0 l4.16 11.24 l4.1 -11.24 l3.4 0 z M280.8975000000001 20 l-3.1 0 l0 -15.98 l3.1 0 l0 15.98 z M298.2550000000001 6.779999999999999 l-4.42 0 l0 13.22 l-3.14 0 l0 -13.22 l-4.42 0 l0 -2.76 l11.98 0 l0 2.76 z M318.1725000000001 4.02 l-6.52 9.44 l0 6.56 l-3.14 0 l0 -6.6 l-6.18 -9.4 l3.6 0 l4.16 6.72 l4.34 -6.72 l3.74 0 z M323.27000000000015 20 q0 0.48 -0.14 0.91 t-0.41 0.76 t-0.68 0.52 t-0.95 0.19 q-0.2 0 -0.39 -0.04 t-0.35 -0.08 l0 -0.22 q0.58 -0.1 0.94 -0.54 t0.36 -1.02 q0 -0.1 -0.02 -0.24 t-0.06 -0.24 l-1.28 0 l0 -2.98 l2.98 0 l0 2.98 z M349.9250000000002 9.38 q0 1.14 -0.43 2.13 t-1.17 1.72 t-1.74 1.14 t-2.12 0.41 l-2.64 0 l0 5.22 l-3.1 0 l0 -15.98 l5.74 0 q1.12 0 2.12 0.41 t1.74 1.13 t1.17 1.7 t0.43 2.12 z M346.8450000000002 9.34 q0 -0.62 -0.23 -1.16 t-0.63 -0.94 t-0.94 -0.64 t-1.16 -0.24 l-2.06 0 l0 6.04 l2.06 0 q0.62 0 1.16 -0.25 t0.94 -0.67 t0.63 -0.97 t0.23 -1.17 z M371.6825000000002 12 q0 1.72 -0.67 3.24 t-1.83 2.64 t-2.7 1.77 t-3.28 0.65 t-3.29 -0.65 t-2.71 -1.77 t-1.83 -2.63 t-0.67 -3.25 t0.67 -3.26 t1.83 -2.64 t2.71 -1.76 t3.29 -0.64 t3.28 0.64 t2.7 1.77 t1.83 2.64 t0.67 3.25 z M368.56250000000017 12 q0 -1.1 -0.42 -2.07 t-1.15 -1.7 t-1.71 -1.16 t-2.08 -0.43 q-1.12 0 -2.1 0.43 t-1.71 1.16 t-1.15 1.7 t-0.42 2.07 q0 1.08 0.42 2.06 t1.15 1.71 t1.71 1.16 t2.1 0.43 q1.1 0 2.08 -0.43 t1.71 -1.16 t1.15 -1.71 t0.42 -2.06 z M397.3200000000002 4 l-5.2 16 l-2.72 0 l-2.94 -9.88 l-2.96 9.88 l-2.72 0 l-5.2 -16 l3.28 0 l3.38 10.34 l2.92 -10.34 l2.56 0 l2.92 10.36 l3.42 -10.36 l3.26 0 z M412.9575000000002 20 l-10.56 0 l0 -15.98 l10.56 0 l0 2.56 l-7.52 0 l0 3.82 l7.42 0 l0 2.5 l-7.42 0 l0 4.4 l7.52 0 l0 2.7 z M430.77500000000015 20 l-3.42 0 l-1.14 -3.64 q-0.18 -0.6 -0.45 -1.1 t-0.65 -0.86 t-0.91 -0.56 t-1.25 -0.2 l-1.16 0 l0 6.36 l-3.06 0 l0 -15.98 l6.32 -0.02 q1.02 0 1.9 0.35 t1.52 0.97 t1 1.46 t0.36 1.82 q0 0.7 -0.22 1.36 t-0.62 1.22 t-0.95 0.99 t-1.21 0.65 q0.76 0.28 1.24 0.81 t0.76 1.27 q0.14 0.34 0.26 0.68 t0.25 0.71 t0.28 0.8 t0.33 0.95 q0.22 0.66 0.41 1.13 t0.41 0.83 z M426.71500000000015 8.82 q0 -0.56 -0.21 -1.02 t-0.57 -0.8 t-0.85 -0.53 t-1.05 -0.19 l-2.24 0 l0 4.98 l2.24 0 q0.56 0 1.05 -0.17 t0.85 -0.49 t0.57 -0.77 t0.21 -1.01 z M446.6125000000002 20 l-10.56 0 l0 -15.98 l10.56 0 l0 2.56 l-7.52 0 l0 3.82 l7.42 0 l0 2.5 l-7.42 0 l0 4.4 l7.52 0 l0 2.7 z M466.6100000000001 12 q0 1.66 -0.56 3.11 t-1.56 2.54 t-2.39 1.72 t-3.03 0.63 l-6.68 0 l0 -16 l6.68 0 q1.64 0 3.03 0.64 t2.39 1.72 t1.56 2.54 t0.56 3.1 z M463.47000000000014 11.92 q0.02 -1.12 -0.34 -2.12 t-1.04 -1.75 t-1.67 -1.18 t-2.23 -0.43 l-2.7 0 l0 10.92 l2.7 0 q1.22 0 2.19 -0.41 t1.65 -1.14 t1.05 -1.72 t0.39 -2.17 z M493.46500000000015 15.42 q0 1 -0.41 1.85 t-1.09 1.46 t-1.57 0.95 t-1.87 0.34 l-6.46 -0.02 l0 -16 l5.76 0 q1.04 0 1.93 0.31 t1.55 0.9 t1.03 1.44 t0.37 1.91 q0 0.9 -0.4 1.74 t-1.06 1.42 q0.52 0.26 0.93 0.66 t0.7 0.89 t0.44 1.04 t0.15 1.11 z M489.64500000000015 8.62 q0 -0.58 -0.22 -1 t-0.59 -0.7 t-0.85 -0.42 t-1 -0.14 l-1.82 0 l0 4.4 q0.5 0.02 0.9 0.02 l0.92 0 t1 -0.12 t0.85 -0.38 t0.59 -0.67 t0.22 -0.99 z M490.2450000000001 15.24 q0 -0.5 -0.19 -0.92 t-0.52 -0.71 t-0.76 -0.45 t-0.93 -0.16 q-0.68 -0.02 -1.34 -0.01 t-1.34 0.01 l0 4.42 l2.32 0 q0.5 0 1 -0.12 t0.89 -0.39 t0.63 -0.68 t0.24 -0.99 z M512.5025000000002 4.02 l-6.52 9.44 l0 6.56 l-3.14 0 l0 -6.6 l-6.18 -9.4 l3.6 0 l4.16 6.72 l4.34 -6.72 l3.74 0 z M538.2375000000002 6.779999999999999 l-4.42 0 l0 13.22 l-3.14 0 l0 -13.22 l-4.42 0 l0 -2.76 l11.98 0 l0 2.76 z M554.1750000000001 20 l-10.56 0 l0 -15.98 l10.56 0 l0 2.56 l-7.52 0 l0 3.82 l7.42 0 l0 2.5 l-7.42 0 l0 4.4 l7.52 0 l0 2.7 z M574.5925000000001 17.12 q-1.2 1.46 -2.91 2.32 t-3.77 0.86 q-1.78 0 -3.34 -0.65 t-2.72 -1.77 t-1.83 -2.63 t-0.67 -3.25 t0.67 -3.25 t1.83 -2.64 t2.72 -1.77 t3.34 -0.64 q2.06 0 3.77 0.86 t2.85 2.24 l-2.14 2.2 q-0.74 -1.06 -1.91 -1.71 t-2.57 -0.65 q-1.12 0 -2.11 0.43 t-1.73 1.16 t-1.17 1.7 t-0.43 2.07 q0 1.08 0.43 2.05 t1.17 1.7 t1.73 1.16 t2.11 0.43 q1.48 0 2.62 -0.67 t1.9 -1.77 z M592.07 20 l-3.1 0 l0 -7.08 l-6.3 0 l0 7.08 l-3.1 0 l0 -15.98 l3.1 0 l0 6.34 l6.3 0 l0 -6.34 l3.1 0 l0 15.98 z M611.7475000000001 20 l-3.04 0 l-7.22 -11.22 l0 11.22 l-3.04 0 l0 -16 l3.48 0 l6.78 10.44 l0 -10.44 l3.04 0 l0 16 z M634.5050000000001 12 q0 1.72 -0.67 3.24 t-1.83 2.64 t-2.7 1.77 t-3.28 0.65 t-3.29 -0.65 t-2.71 -1.77 t-1.83 -2.63 t-0.67 -3.25 t0.67 -3.26 t1.83 -2.64 t2.71 -1.76 t3.29 -0.64 t3.28 0.64 t2.7 1.77 t1.83 2.64 t0.67 3.25 z M631.3850000000001 12 q0 -1.1 -0.42 -2.07 t-1.15 -1.7 t-1.71 -1.16 t-2.08 -0.43 q-1.12 0 -2.1 0.43 t-1.71 1.16 t-1.15 1.7 t-0.42 2.07 q0 1.08 0.42 2.06 t1.15 1.71 t1.71 1.16 t2.1 0.43 q1.1 0 2.08 -0.43 t1.71 -1.16 t1.15 -1.71 t0.42 -2.06 z M651.1025000000001 20 l-10.82 0 l0 -15.98 l3.16 0 l0 12.98 l7.66 0 l0 3 z M671.6000000000001 12 q0 1.72 -0.67 3.24 t-1.83 2.64 t-2.7 1.77 t-3.28 0.65 t-3.29 -0.65 t-2.71 -1.77 t-1.83 -2.63 t-0.67 -3.25 t0.67 -3.26 t1.83 -2.64 t2.71 -1.76 t3.29 -0.64 t3.28 0.64 t2.7 1.77 t1.83 2.64 t0.67 3.25 z M668.4800000000001 12 q0 -1.1 -0.42 -2.07 t-1.15 -1.7 t-1.71 -1.16 t-2.08 -0.43 q-1.12 0 -2.1 0.43 t-1.71 1.16 t-1.15 1.7 t-0.42 2.07 q0 1.08 0.42 2.06 t1.15 1.71 t1.71 1.16 t2.1 0.43 q1.1 0 2.08 -0.43 t1.71 -1.16 t1.15 -1.71 t0.42 -2.06 z M692.0975000000002 17.06 q-0.68 0.84 -1.48 1.45 t-1.67 1.01 t-1.78 0.59 t-1.81 0.19 q-1.78 0 -3.34 -0.64 t-2.72 -1.76 t-1.84 -2.64 t-0.68 -3.28 q0 -1.72 0.67 -3.23 t1.84 -2.63 t2.73 -1.77 t3.34 -0.65 q2.06 0 3.75 0.84 t2.87 2.24 l-2.1 2.14 q-0.9 -1.22 -2.02 -1.75 t-2.5 -0.53 q-1.14 0 -2.14 0.42 t-1.75 1.15 t-1.18 1.7 t-0.43 2.07 q0 1.12 0.43 2.09 t1.18 1.71 t1.75 1.16 t2.14 0.42 q1.08 0 2.04 -0.4 t1.72 -1.06 l0 -1.54 l-3.28 0 l0 -2.64 l6.26 0 l0 5.34 z M711.4950000000001 4.02 l-6.52 9.44 l0 6.56 l-3.14 0 l0 -6.6 l-6.18 -9.4 l3.6 0 l4.16 6.72 l4.34 -6.72 l3.74 0 z"></path></g>
			</g>
		</svg>
	